<mxfile host="app.diagrams.net" modified="2021-11-17T07:52:27.745Z" agent="5.0 (Windows)" etag="Stfg5D1K3hcu4Teryoup" version="15.7.4" type="github">
  <diagram id="91DmnEcrEqNnysZLmtfc" name="Page-1">
    <mxGraphModel dx="1209" dy="632" grid="1" gridSize="10" guides="1" tooltips="1" connect="1" arrows="1" fold="1" page="1" pageScale="1" pageWidth="850" pageHeight="1100" math="0" shadow="0">
      <root>
        <mxCell id="0" />
        <mxCell id="1" parent="0" />
        <mxCell id="Dnfp0h0cq70mF3YanS-K-1" value="Deep Transformer (BERT)" style="rounded=0;whiteSpace=wrap;html=1;fillColor=#bac8d3;strokeColor=#23445d;fontSize=21;" parent="1" vertex="1">
          <mxGeometry x="120" y="290" width="600" height="60" as="geometry" />
        </mxCell>
        <mxCell id="Dnfp0h0cq70mF3YanS-K-2" value="" style="endArrow=classic;html=1;rounded=0;fontSize=21;" parent="1" edge="1">
          <mxGeometry width="50" height="50" relative="1" as="geometry">
            <mxPoint x="200" y="290" as="sourcePoint" />
            <mxPoint x="200" y="240" as="targetPoint" />
          </mxGeometry>
        </mxCell>
        <mxCell id="Dnfp0h0cq70mF3YanS-K-4" value="" style="whiteSpace=wrap;html=1;aspect=fixed;fontSize=21;fillColor=#fad7ac;strokeColor=#b46504;" parent="1" vertex="1">
          <mxGeometry x="180" y="200" width="40" height="40" as="geometry" />
        </mxCell>
        <mxCell id="Dnfp0h0cq70mF3YanS-K-5" value="" style="whiteSpace=wrap;html=1;aspect=fixed;fontSize=21;fillColor=#fad7ac;strokeColor=#b46504;" parent="1" vertex="1">
          <mxGeometry x="260" y="200" width="40" height="40" as="geometry" />
        </mxCell>
        <mxCell id="Dnfp0h0cq70mF3YanS-K-6" value="" style="endArrow=classic;html=1;rounded=0;fontSize=21;" parent="1" edge="1">
          <mxGeometry width="50" height="50" relative="1" as="geometry">
            <mxPoint x="279.5" y="290" as="sourcePoint" />
            <mxPoint x="279.5" y="240" as="targetPoint" />
          </mxGeometry>
        </mxCell>
        <mxCell id="Dnfp0h0cq70mF3YanS-K-7" value="" style="endArrow=classic;html=1;rounded=0;fontSize=21;" parent="1" edge="1">
          <mxGeometry width="50" height="50" relative="1" as="geometry">
            <mxPoint x="200" y="160" as="sourcePoint" />
            <mxPoint x="320" y="160" as="targetPoint" />
          </mxGeometry>
        </mxCell>
        <mxCell id="Dnfp0h0cq70mF3YanS-K-8" value="" style="endArrow=none;html=1;rounded=0;fontSize=21;" parent="1" edge="1">
          <mxGeometry width="50" height="50" relative="1" as="geometry">
            <mxPoint x="200" y="200" as="sourcePoint" />
            <mxPoint x="200" y="160" as="targetPoint" />
          </mxGeometry>
        </mxCell>
        <mxCell id="Dnfp0h0cq70mF3YanS-K-9" value="" style="endArrow=none;html=1;rounded=0;fontSize=21;" parent="1" edge="1">
          <mxGeometry width="50" height="50" relative="1" as="geometry">
            <mxPoint x="279.5" y="200" as="sourcePoint" />
            <mxPoint x="279.5" y="160" as="targetPoint" />
          </mxGeometry>
        </mxCell>
        <mxCell id="Dnfp0h0cq70mF3YanS-K-10" value="" style="rounded=0;whiteSpace=wrap;html=1;fontSize=21;fillColor=#fff2cc;strokeColor=#d6b656;" parent="1" vertex="1">
          <mxGeometry x="320" y="140" width="230" height="40" as="geometry" />
        </mxCell>
        <mxCell id="Dnfp0h0cq70mF3YanS-K-11" value="" style="endArrow=classic;html=1;rounded=0;fontSize=21;" parent="1" edge="1">
          <mxGeometry width="50" height="50" relative="1" as="geometry">
            <mxPoint x="600" y="290" as="sourcePoint" />
            <mxPoint x="600" y="240" as="targetPoint" />
          </mxGeometry>
        </mxCell>
        <mxCell id="Dnfp0h0cq70mF3YanS-K-12" value="" style="whiteSpace=wrap;html=1;aspect=fixed;fontSize=21;fillColor=#fad7ac;strokeColor=#b46504;" parent="1" vertex="1">
          <mxGeometry x="580" y="200" width="40" height="40" as="geometry" />
        </mxCell>
        <mxCell id="Dnfp0h0cq70mF3YanS-K-13" value="" style="endArrow=none;html=1;rounded=0;fontSize=21;" parent="1" edge="1">
          <mxGeometry width="50" height="50" relative="1" as="geometry">
            <mxPoint x="599.5" y="200" as="sourcePoint" />
            <mxPoint x="599.5" y="160" as="targetPoint" />
          </mxGeometry>
        </mxCell>
        <mxCell id="Dnfp0h0cq70mF3YanS-K-14" value="" style="endArrow=classic;html=1;rounded=0;fontSize=21;entryX=1;entryY=0.5;entryDx=0;entryDy=0;" parent="1" target="Dnfp0h0cq70mF3YanS-K-10" edge="1">
          <mxGeometry width="50" height="50" relative="1" as="geometry">
            <mxPoint x="600" y="160" as="sourcePoint" />
            <mxPoint x="450" y="300" as="targetPoint" />
          </mxGeometry>
        </mxCell>
        <mxCell id="Dnfp0h0cq70mF3YanS-K-15" value="" style="ellipse;whiteSpace=wrap;html=1;aspect=fixed;fontSize=21;fillColor=#fff2cc;strokeColor=#d6b656;strokeWidth=2;" parent="1" vertex="1">
          <mxGeometry x="330" y="150" width="20" height="20" as="geometry" />
        </mxCell>
        <mxCell id="Dnfp0h0cq70mF3YanS-K-16" value="" style="ellipse;whiteSpace=wrap;html=1;aspect=fixed;fontSize=21;fillColor=#fff2cc;strokeColor=#d6b656;strokeWidth=2;" parent="1" vertex="1">
          <mxGeometry x="430" y="150" width="20" height="20" as="geometry" />
        </mxCell>
        <mxCell id="Dnfp0h0cq70mF3YanS-K-17" value="" style="ellipse;whiteSpace=wrap;html=1;aspect=fixed;fontSize=21;fillColor=#fff2cc;strokeColor=#d6b656;strokeWidth=2;" parent="1" vertex="1">
          <mxGeometry x="470" y="150" width="20" height="20" as="geometry" />
        </mxCell>
        <mxCell id="Dnfp0h0cq70mF3YanS-K-18" value="" style="ellipse;whiteSpace=wrap;html=1;aspect=fixed;fontSize=21;fillColor=#fff2cc;strokeColor=#d6b656;strokeWidth=2;" parent="1" vertex="1">
          <mxGeometry x="510" y="150" width="20" height="20" as="geometry" />
        </mxCell>
        <mxCell id="lycsMG4sX7caLxFkDI3n-1" value="" style="whiteSpace=wrap;html=1;aspect=fixed;fontSize=21;fillColor=#60a917;strokeColor=#2D7600;fontColor=#ffffff;" vertex="1" parent="1">
          <mxGeometry x="160" y="400" width="40" height="40" as="geometry" />
        </mxCell>
        <mxCell id="lycsMG4sX7caLxFkDI3n-2" value="" style="whiteSpace=wrap;html=1;aspect=fixed;fontSize=21;fillColor=#fad7ac;strokeColor=#b46504;" vertex="1" parent="1">
          <mxGeometry x="240" y="400" width="40" height="40" as="geometry" />
        </mxCell>
        <mxCell id="lycsMG4sX7caLxFkDI3n-3" value="" style="whiteSpace=wrap;html=1;aspect=fixed;fontSize=21;fillColor=#fad7ac;strokeColor=#b46504;" vertex="1" parent="1">
          <mxGeometry x="320" y="400" width="40" height="40" as="geometry" />
        </mxCell>
        <mxCell id="lycsMG4sX7caLxFkDI3n-4" value="" style="whiteSpace=wrap;html=1;aspect=fixed;fontSize=21;fillColor=#fad7ac;strokeColor=#b46504;" vertex="1" parent="1">
          <mxGeometry x="400" y="400" width="40" height="40" as="geometry" />
        </mxCell>
        <mxCell id="lycsMG4sX7caLxFkDI3n-5" value="" style="whiteSpace=wrap;html=1;aspect=fixed;fontSize=21;fillColor=#fad7ac;strokeColor=#b46504;" vertex="1" parent="1">
          <mxGeometry x="480" y="400" width="40" height="40" as="geometry" />
        </mxCell>
        <mxCell id="lycsMG4sX7caLxFkDI3n-6" value="" style="whiteSpace=wrap;html=1;aspect=fixed;fontSize=21;fillColor=#fad7ac;strokeColor=#b46504;" vertex="1" parent="1">
          <mxGeometry x="560" y="400" width="40" height="40" as="geometry" />
        </mxCell>
        <mxCell id="lycsMG4sX7caLxFkDI3n-7" value="" style="whiteSpace=wrap;html=1;aspect=fixed;fontSize=21;fillColor=#1ba1e2;strokeColor=#006EAF;fontColor=#ffffff;" vertex="1" parent="1">
          <mxGeometry x="640" y="400" width="40" height="40" as="geometry" />
        </mxCell>
        <mxCell id="lycsMG4sX7caLxFkDI3n-8" value="" style="endArrow=classic;html=1;rounded=0;fontSize=21;" edge="1" parent="1">
          <mxGeometry width="50" height="50" relative="1" as="geometry">
            <mxPoint x="179.5" y="400" as="sourcePoint" />
            <mxPoint x="179.5" y="350" as="targetPoint" />
          </mxGeometry>
        </mxCell>
        <mxCell id="lycsMG4sX7caLxFkDI3n-9" value="" style="endArrow=classic;html=1;rounded=0;fontSize=21;" edge="1" parent="1">
          <mxGeometry width="50" height="50" relative="1" as="geometry">
            <mxPoint x="259.5" y="400" as="sourcePoint" />
            <mxPoint x="259.5" y="350" as="targetPoint" />
          </mxGeometry>
        </mxCell>
        <mxCell id="lycsMG4sX7caLxFkDI3n-10" value="" style="endArrow=classic;html=1;rounded=0;fontSize=21;" edge="1" parent="1">
          <mxGeometry width="50" height="50" relative="1" as="geometry">
            <mxPoint x="339.5" y="400" as="sourcePoint" />
            <mxPoint x="339.5" y="350" as="targetPoint" />
          </mxGeometry>
        </mxCell>
        <mxCell id="lycsMG4sX7caLxFkDI3n-11" value="" style="endArrow=classic;html=1;rounded=0;fontSize=21;" edge="1" parent="1">
          <mxGeometry width="50" height="50" relative="1" as="geometry">
            <mxPoint x="419.5" y="400" as="sourcePoint" />
            <mxPoint x="419.5" y="350" as="targetPoint" />
          </mxGeometry>
        </mxCell>
        <mxCell id="lycsMG4sX7caLxFkDI3n-12" value="" style="endArrow=classic;html=1;rounded=0;fontSize=21;" edge="1" parent="1">
          <mxGeometry width="50" height="50" relative="1" as="geometry">
            <mxPoint x="499.5" y="400" as="sourcePoint" />
            <mxPoint x="499.5" y="350" as="targetPoint" />
          </mxGeometry>
        </mxCell>
        <mxCell id="lycsMG4sX7caLxFkDI3n-13" value="" style="endArrow=classic;html=1;rounded=0;fontSize=21;" edge="1" parent="1">
          <mxGeometry width="50" height="50" relative="1" as="geometry">
            <mxPoint x="579.5" y="400" as="sourcePoint" />
            <mxPoint x="579.5" y="350" as="targetPoint" />
          </mxGeometry>
        </mxCell>
        <mxCell id="lycsMG4sX7caLxFkDI3n-14" value="" style="endArrow=classic;html=1;rounded=0;fontSize=21;" edge="1" parent="1">
          <mxGeometry width="50" height="50" relative="1" as="geometry">
            <mxPoint x="659.5" y="400" as="sourcePoint" />
            <mxPoint x="659.5" y="350" as="targetPoint" />
          </mxGeometry>
        </mxCell>
        <mxCell id="lycsMG4sX7caLxFkDI3n-15" value="[CLS]" style="text;html=1;strokeColor=none;fillColor=none;align=center;verticalAlign=middle;whiteSpace=wrap;rounded=0;fontSize=21;" vertex="1" parent="1">
          <mxGeometry x="150" y="460" width="60" height="30" as="geometry" />
        </mxCell>
        <mxCell id="lycsMG4sX7caLxFkDI3n-16" value="Entity 1" style="text;html=1;strokeColor=none;fillColor=none;align=center;verticalAlign=middle;whiteSpace=wrap;rounded=0;fontSize=17;fontStyle=3" vertex="1" parent="1">
          <mxGeometry x="225" y="460" width="70" height="30" as="geometry" />
        </mxCell>
        <mxCell id="lycsMG4sX7caLxFkDI3n-17" value="Entity 2" style="text;html=1;strokeColor=none;fillColor=none;align=center;verticalAlign=middle;whiteSpace=wrap;rounded=0;fontSize=17;fontStyle=3" vertex="1" parent="1">
          <mxGeometry x="305" y="460" width="70" height="30" as="geometry" />
        </mxCell>
      </root>
    </mxGraphModel>
  </diagram>
</mxfile>
